<?xml version="1.0" encoding="utf-8"?>
<!-- Generator: Adobe Illustrator 16.0.0, SVG Export Plug-In . SVG Version: 6.00 Build 0)  -->
<!DOCTYPE svg PUBLIC "-//W3C//DTD SVG 1.1//EN" "http://www.w3.org/Graphics/SVG/1.1/DTD/svg11.dtd">
<svg version="1.1" id="Layer_1" xmlns="http://www.w3.org/2000/svg" xmlns:xlink="http://www.w3.org/1999/xlink" x="0px" y="0px"
	 width="32.4px" height="25.92px" viewBox="0 0 32.4 25.92" enable-background="new 0 0 32.4 25.92" xml:space="preserve">
<path id="Icon_awesome-eye-slash" fill="#7A8687" d="M16.2,20.25c-3.804-0.005-6.96-2.944-7.234-6.739l-5.311-4.1
	c-0.711,0.872-1.332,1.813-1.855,2.81c-0.234,0.464-0.234,1.013,0,1.478c2.729,5.464,8.293,8.934,14.4,8.981
	c1.331-0.01,2.656-0.188,3.943-0.531l-2.627-2.032C17.082,20.2,16.641,20.245,16.2,20.25L16.2,20.25z M32.087,23.19l-5.6-4.324
	c1.7-1.433,3.098-3.188,4.113-5.166c0.234-0.465,0.234-1.014,0-1.478c-2.729-5.464-8.293-8.935-14.4-8.982
	c-2.606,0.003-5.171,0.659-7.458,1.909L2.3,0.171C1.947-0.103,1.438-0.04,1.164,0.313L0.171,1.592
	C-0.104,1.945-0.04,2.454,0.312,2.729c0.001,0,0.001,0,0.001,0L30.1,25.749c0.353,0.275,0.861,0.211,1.137-0.142v-0.001l0.994-1.278
	c0.274-0.354,0.211-0.862-0.143-1.137C32.089,23.191,32.089,23.19,32.087,23.19L32.087,23.19z M22.786,16L20.8,14.465
	c0.864-2.506-0.468-5.238-2.974-6.102c-0.938-0.323-1.952-0.348-2.904-0.071c0.305,0.414,0.469,0.914,0.469,1.428
	c-0.008,0.171-0.034,0.341-0.078,0.506l-3.728-2.88C12.88,6.264,14.512,5.671,16.2,5.67c4.024-0.002,7.288,3.258,7.29,7.282
	c0,0.002,0,0.005,0,0.008c-0.005,1.054-0.244,2.093-0.7,3.043L22.786,16z"/>
</svg>
