<svg xmlns="http://www.w3.org/2000/svg" width="21.009" height="20.077" viewBox="0 0 21.009 20.077">
  <path id="icon-linkedin" d="M-.18,2.548A2.184,2.184,0,0,1,.53.875,2.6,2.6,0,0,1,2.375.216a2.526,2.526,0,0,1,1.8.649,2.287,2.287,0,0,1,.71,1.744A2.135,2.135,0,0,1,4.2,4.231,2.609,2.609,0,0,1,2.335,4.9h-.02a2.482,2.482,0,0,1-1.8-.669A2.248,2.248,0,0,1-.18,2.548ZM.084,20.292V6.746h4.5V20.292H.084Zm7,0h4.5V12.728a2.919,2.919,0,0,1,.162-1.1,2.941,2.941,0,0,1,.862-1.166,2.2,2.2,0,0,1,1.45-.477q2.271,0,2.271,3.062v7.24h4.5V12.525a6.527,6.527,0,0,0-1.42-4.553,4.842,4.842,0,0,0-3.752-1.551,4.6,4.6,0,0,0-4.076,2.251v.041h-.02l.02-.041V6.746H7.08q.041.649.041,4.036T7.08,20.292Z" transform="translate(0.18 -0.216)" fill="#d1dadb"/>
</svg>
