<svg xmlns="http://www.w3.org/2000/svg" width="21.968" height="21.968" viewBox="0 0 21.968 21.968">
  <path id="Icon_simple-whatsapp" data-name="Icon simple-whatsapp" d="M16.017,13.164c-.276-.137-1.617-.794-1.867-.884s-.433-.137-.616.137-.706.882-.864,1.064-.319.192-.591.069a7.429,7.429,0,0,1-2.2-1.359A8.3,8.3,0,0,1,8.359,10.3c-.159-.275-.017-.426.119-.563s.276-.316.413-.479A2.32,2.32,0,0,0,9.163,8.8a.5.5,0,0,0-.023-.48C9.071,8.183,8.525,6.838,8.3,6.3s-.446-.467-.615-.467-.34-.014-.523-.014a1.032,1.032,0,0,0-.73.329,3.056,3.056,0,0,0-.957,2.265,5.356,5.356,0,0,0,1.116,2.815,12.205,12.205,0,0,0,4.668,4.105c.654.275,1.162.439,1.56.576a3.787,3.787,0,0,0,1.721.111,2.817,2.817,0,0,0,1.845-1.305,2.266,2.266,0,0,0,.165-1.3c-.068-.124-.247-.192-.522-.316M11.04,19.909h-.015A9.157,9.157,0,0,1,6.4,18.646l-.33-.2-3.433.892.92-3.336-.219-.343a9.078,9.078,0,0,1,14.139-11.2,8.959,8.959,0,0,1,2.663,6.4,9.09,9.09,0,0,1-9.094,9.048M18.783,3.157A11.114,11.114,0,0,0,11.025,0,10.883,10.883,0,0,0,1.552,16.328L0,21.968l5.8-1.512a11.041,11.041,0,0,0,5.227,1.325h.005A10.929,10.929,0,0,0,21.968,10.892a10.8,10.8,0,0,0-3.2-7.7" fill="#d1dadb"/>
</svg>
