<svg xmlns="http://www.w3.org/2000/svg" width="25.3" height="20.548" viewBox="0 0 25.3 20.548">
  <path id="icon-twitter" d="M22.7,8.5c.016.225.016.45.016.674A14.652,14.652,0,0,1,7.963,23.929,14.653,14.653,0,0,1,0,21.6a10.727,10.727,0,0,0,1.252.064A10.385,10.385,0,0,0,7.69,19.45a5.194,5.194,0,0,1-4.848-3.6,6.539,6.539,0,0,0,.979.08,5.484,5.484,0,0,0,1.365-.177,5.186,5.186,0,0,1-4.158-5.089V10.6a5.222,5.222,0,0,0,2.344.658A5.193,5.193,0,0,1,1.766,4.328,14.739,14.739,0,0,0,12.457,9.754a5.854,5.854,0,0,1-.128-1.188A5.19,5.19,0,0,1,21.3,5.018a10.209,10.209,0,0,0,3.291-1.252,5.171,5.171,0,0,1-2.28,2.857,10.4,10.4,0,0,0,2.986-.8A11.146,11.146,0,0,1,22.7,8.5Z" transform="translate(0 -3.381)" fill="#d1dadb"/>
</svg>
