<svg xmlns="http://www.w3.org/2000/svg" width="28.3" height="19.898" viewBox="0 0 28.3 19.898">
  <path id="icon-youtube" d="M28.759,7.613a3.556,3.556,0,0,0-2.5-2.518C24.05,4.5,15.2,4.5,15.2,4.5s-8.85,0-11.057.6a3.556,3.556,0,0,0-2.5,2.518,37.3,37.3,0,0,0-.591,6.856,37.3,37.3,0,0,0,.591,6.856,3.5,3.5,0,0,0,2.5,2.478c2.207.6,11.057.6,11.057.6s8.85,0,11.057-.6a3.5,3.5,0,0,0,2.5-2.478,37.3,37.3,0,0,0,.591-6.856,37.3,37.3,0,0,0-.591-6.856ZM12.306,18.677V10.261l7.4,4.208-7.4,4.208Z" transform="translate(-1.05 -4.5)" fill="#d1dadb"/>
</svg>
